<svg height="512" viewBox="0 0 64 64" width="512" xmlns="http://www.w3.org/2000/svg"><path d="m25 5a7 7 0 0 0 -6.87 5.64 7.995 7.995 0 0 0 -8.97 12.82v.01a8.979 8.979 0 0 0 -2.76 15.56 5.009 5.009 0 0 0 4.6 6.97 4.712 4.712 0 0 0 1-.1 6 6 0 0 0 6 6.1 2.715 2.715 0 0 0 .29-.01 7 7 0 1 0 13.71 2.01v-42a7 7 0 0 0 -7-7z" fill="#2488ff"/><path d="m61 38v-12h-7.83a21.555 21.555 0 0 0 -1.96-4.72l5.54-5.54-8.49-8.49-5.54 5.54a21.555 21.555 0 0 0 -4.72-1.96v-7.83h-6v16a13 13 0 0 1 0 26v16h6v-7.83a21.555 21.555 0 0 0 4.72-1.96l5.54 5.54 8.49-8.49-5.54-5.54a21.555 21.555 0 0 0 1.96-4.72z" fill="#ffa733"/><path d="m31 3h2v58h-2z" fill="#ee8700"/><path d="m48.678 48.678h2v2h-2z" fill="#ee8700" transform="matrix(.707 -.707 .707 .707 -20.577 49.678)"/><path d="m56 31h2v2h-2z" fill="#ee8700"/><path d="m48.678 13.322h2v2h-2z" fill="#ee8700" transform="matrix(.707 -.707 .707 .707 4.423 39.322)"/><g fill="#006df0"><path d="m23 31h2v2h-2z"/><path d="m27 26h2v2h-2z"/><path d="m13 35v2a4 4 0 1 0 -4-4h2a2 2 0 1 1 2 2z"/><path d="m12 18a3 3 0 0 1 3-3v-2a5.006 5.006 0 0 0 -5 5z"/><path d="m25 10a2 2 0 0 1 2 2h2a4 4 0 0 0 -4-4z"/><path d="m26 55a1 1 0 0 1 -1 1h-1v2h1a3 3 0 0 0 3-3v-1h-2z"/><path d="m25 4a8.007 8.007 0 0 0 -7.54 5.352 8.892 8.892 0 0 0 -2.46-.352 8.987 8.987 0 0 0 -7.437 14.052 10 10 0 0 0 -5.563 8.948 9.876 9.876 0 0 0 3.24 7.337 5.985 5.985 0 0 0 5.76 7.663h.077a6.97 6.97 0 0 0 6 5.937 8.232 8.232 0 0 0 -.077 1.063 8 8 0 0 0 16 0v-42a8.009 8.009 0 0 0 -8-8zm6 41v9a6 6 0 0 1 -12 0 6.091 6.091 0 0 1 .111-1.1 7.005 7.005 0 0 0 5.889-6.9 1 1 0 0 1 2 0v1h2v-1a3 3 0 0 0 -6 0 5 5 0 1 1 -10-.155 5.171 5.171 0 0 1 5.251-4.845h1.749a5.006 5.006 0 0 0 5-5v-1h-2v1a3 3 0 0 1 -3 3h-1.749a7.227 7.227 0 0 0 -7.171 5.992c-.029 0-.051.008-.08.008a4 4 0 0 1 0-8v-2a5.991 5.991 0 0 0 -4.831 2.456 7.9 7.9 0 0 1 -2.169-5.456 8 8 0 0 1 13.452-5.854l1.363-1.463a9.917 9.917 0 0 0 -9.315-2.355 6.994 6.994 0 0 1 7.533-11.023c-.02.23-.035.46-.035.7a8.009 8.009 0 0 0 8 8h1a1 1 0 0 1 1 1v3h2v-3.005a3 3 0 0 0 -3-3h-.998a6 6 0 1 1 6-6z"/></g></svg>