<svg id="Capa_1" enable-background="new 0 0 512 512" height="512" viewBox="0 0 512 512" width="512" xmlns="http://www.w3.org/2000/svg"><circle cx="256" cy="256" fill="#4a7aff" r="256"/><path d="m512 256c0-13.534-1.05-26.822-3.073-39.788l-158.213-158.212-14.639 61.041-36.721-36.721-57.491 26.258-50.577-50.578-21.396 125.542-112.89 7.744 145.726 145.726-145.726 13.702 158.024 158.024c13.342 2.146 27.029 3.262 40.976 3.262 141.385 0 256-114.615 256-256z" fill="#0053bf"/><path d="m256 308c-28.673 0-52-23.327-52-52s23.327-52 52-52 52 23.327 52 52-23.327 52-52 52zm0-74c-12.131 0-22 9.869-22 22s9.869 22 22 22 22-9.869 22-22-9.869-22-22-22z" fill="#ffe000"/><path d="m256 204v30c12.131 0 22 9.869 22 22s-9.869 22-22 22v30c28.673 0 52-23.327 52-52s-23.327-52-52-52z" fill="#ffc200"/><path d="m407.539 308c-28.673 0-52-23.327-52-52s23.327-52 52-52 52 23.327 52 52-23.327 52-52 52zm0-74c-12.131 0-22 9.869-22 22s9.869 22 22 22 22-9.869 22-22-9.869-22-22-22z" fill="#ffc200"/><path d="m455 191.286v-30h-263.714v-103.286h-30v103.286h-104.286v30h104.286v129.428h-104.286v30h104.286v103.286h30v-103.286h263.714v-30h-263.714v-129.428z" fill="#fff"/><path d="m455 191.286v-30h-104.286v-103.286h-30v103.286h-64.714v30h64.714v129.428h-64.714v30h64.714v103.286h30v-103.286h104.286v-30h-104.286v-129.428z" fill="#e9edf5"/><path d="m299.354 82.32-21.212-21.214-22.142 22.142-22.142-22.142-21.212 21.214 22.141 22.141-22.141 22.141 21.212 21.214 22.142-22.142 22.142 22.142 21.212-21.214-22.141-22.141z" fill="#ff5f96"/><path d="m299.354 82.32-21.212-21.214-22.142 22.142v42.426l22.142 22.142 21.212-21.214-22.141-22.141z" fill="#d72878"/><path d="m299.355 385.398-21.213-21.213-22.142 22.141-22.141-22.141-21.213 21.213 22.141 22.141-22.141 22.142 21.213 21.213 22.141-22.142 22.142 22.142 21.212-21.213-22.141-22.141z" fill="#ff5f96"/><path d="m299.355 385.398-21.213-21.213-22.142 22.141v.001 42.425.001-.001l22.142 22.142 21.212-21.213-22.141-22.141z" fill="#d72878"/></svg>